<?xml version="1.0" encoding="utf-8"?>
<!-- Generator: Adobe Illustrator 27.8.0, SVG Export Plug-In . SVG Version: 6.00 Build 0)  -->
<svg version="1.1" id="Layer_1" xmlns="http://www.w3.org/2000/svg" xmlns:xlink="http://www.w3.org/1999/xlink" x="0px" y="0px"
	 viewBox="0 0 512 512" style="enable-background:new 0 0 512 512;" xml:space="preserve">
<style type="text/css">
	.st0{fill:#EFEFEF;}
	.st1{fill:#66BA8E;}
	.st2{fill:#E3182B;}
	.st3{fill:#292929;}
</style>
<path class="st0" d="M481,253.1v5.8c-0.3,25.1-4.8,49.2-12.7,71.8H177.1V181.3h291.2C476.2,203.8,480.7,228,481,253.1z"/>
<path class="st1" d="M468.3,181.3H177.1V45.2c23.7-8.9,49.3-13.9,76-14.2h5.8C355.8,32.2,437.9,94.6,468.3,181.3z"/>
<path class="st2" d="M177.1,45.2v136.1H43.7C65.8,118.5,114.9,68.5,177.1,45.2z"/>
<path class="st2" d="M177.1,181.3v149.3H43.7C35.5,307.3,31,282.2,31,256s4.5-51.3,12.7-74.7H177.1z"/>
<path class="st2" d="M177.1,330.7v136.1c-62.2-23.3-111.3-73.3-133.4-136.1H177.1z"/>
<path class="st3" d="M468.3,330.7C437.9,417.4,355.8,479.8,258.9,481h-5.8c-26.7-0.3-52.3-5.3-76-14.2V330.7H468.3z"/>
</svg>
